<svg width="16" height="16" viewBox="0 0 16 16" fill="none" xmlns="http://www.w3.org/2000/svg">
<rect width="16" height="16" fill="#1E1E1E"/>
<g id="medical sales- Sales">
<path d="M-1928 -349C-1928 -350.104 -1927.1 -351 -1926 -351H4861C4862.1 -351 4863 -350.105 4863 -349V2515C4863 2516.1 4862.1 2517 4861 2517H-1926C-1927.1 2517 -1928 2516.1 -1928 2515V-349Z" fill="#444444"/>
<path d="M-1926 -351V-350H4861V-351V-352H-1926V-351ZM4863 -349H4862V2515H4863H4864V-349H4863ZM4861 2517V2516H-1926V2517V2518H4861V2517ZM-1928 2515H-1927V-349H-1928H-1929V2515H-1928ZM-1926 2517V2516C-1926.55 2516 -1927 2515.55 -1927 2515H-1928H-1929C-1929 2516.66 -1927.66 2518 -1926 2518V2517ZM4863 2515H4862C4862 2515.55 4861.55 2516 4861 2516V2517V2518C4862.66 2518 4864 2516.66 4864 2515H4863ZM4861 -351V-350C4861.55 -350 4862 -349.552 4862 -349H4863H4864C4864 -350.657 4862.66 -352 4861 -352V-351ZM-1926 -351V-352C-1927.66 -352 -1929 -350.657 -1929 -349H-1928H-1927C-1927 -349.552 -1926.55 -350 -1926 -350V-351Z" fill="white" fill-opacity="0.1"/>
<g id="sales" clip-path="url(#clip0_67_10)">
<rect width="1620" height="1356" transform="translate(-1293 -102)" fill="#F0F0F3"/>
<g id="Frame 2095585160">
<g id="header">
<g id="Frame 1597881084">
<g clip-path="url(#clip1_67_10)">
<g id="button">
<rect x="-20" y="-12" width="93" height="40" rx="6" fill="white"/>
<g id="fluent:delete-24-regular">
<path id="Vector" d="M6.66683 3.33333H9.3335C9.3335 2.97971 9.19302 2.64057 8.94297 2.39052C8.69292 2.14048 8.35379 2 8.00016 2C7.64654 2 7.3074 2.14048 7.05735 2.39052C6.80731 2.64057 6.66683 2.97971 6.66683 3.33333ZM5.66683 3.33333C5.66683 3.02692 5.72718 2.7235 5.84444 2.44041C5.9617 2.15731 6.13358 1.90009 6.35025 1.68342C6.56692 1.46675 6.82414 1.29488 7.10723 1.17761C7.39033 1.06035 7.69375 1 8.00016 1C8.30658 1 8.61 1.06035 8.89309 1.17761C9.17618 1.29488 9.43341 1.46675 9.65008 1.68342C9.86675 1.90009 10.0386 2.15731 10.1559 2.44041C10.2731 2.7235 10.3335 3.02692 10.3335 3.33333H14.1668C14.2994 3.33333 14.4266 3.38601 14.5204 3.47978C14.6142 3.57355 14.6668 3.70073 14.6668 3.83333C14.6668 3.96594 14.6142 4.09312 14.5204 4.18689C14.4266 4.28066 14.2994 4.33333 14.1668 4.33333H13.2868L12.5068 12.4073C12.447 13.026 12.1589 13.6002 11.6986 14.0179C11.2384 14.4356 10.639 14.6669 10.0175 14.6667H5.98283C5.36141 14.6667 4.76223 14.4354 4.30213 14.0177C3.84203 13.6 3.55399 13.0259 3.49416 12.4073L2.7135 4.33333H1.8335C1.70089 4.33333 1.57371 4.28066 1.47994 4.18689C1.38617 4.09312 1.3335 3.96594 1.3335 3.83333C1.3335 3.70073 1.38617 3.57355 1.47994 3.47978C1.57371 3.38601 1.70089 3.33333 1.8335 3.33333H5.66683ZM7.00016 6.5C7.00016 6.36739 6.94748 6.24022 6.85372 6.14645C6.75995 6.05268 6.63277 6 6.50016 6C6.36755 6 6.24038 6.05268 6.14661 6.14645C6.05284 6.24022 6.00016 6.36739 6.00016 6.5V11.5C6.00016 11.6326 6.05284 11.7598 6.14661 11.8536C6.24038 11.9473 6.36755 12 6.50016 12C6.63277 12 6.75995 11.9473 6.85372 11.8536C6.94748 11.7598 7.00016 11.6326 7.00016 11.5V6.5ZM9.50016 6C9.63277 6 9.75995 6.05268 9.85372 6.14645C9.94748 6.24022 10.0002 6.36739 10.0002 6.5V11.5C10.0002 11.6326 9.94748 11.7598 9.85372 11.8536C9.75995 11.9473 9.63277 12 9.50016 12C9.36755 12 9.24038 11.9473 9.14661 11.8536C9.05284 11.7598 9.00016 11.6326 9.00016 11.5V6.5C9.00016 6.36739 9.05284 6.24022 9.14661 6.14645C9.24038 6.05268 9.36755 6 9.50016 6ZM4.4895 12.3113C4.52545 12.6824 4.69833 13.0268 4.97441 13.2774C5.25049 13.528 5.60999 13.6667 5.98283 13.6667H10.0175C10.3903 13.6667 10.7498 13.528 11.0259 13.2774C11.302 13.0268 11.4749 12.6824 11.5108 12.3113L12.2828 4.33333H3.7175L4.4895 12.3113Z" fill="#EB3B48"/>
</g>
</g>
</g>
</g>
</g>
</g>
</g>
</g>
<defs>
<clipPath id="clip0_67_10">
<rect width="1620" height="1356" fill="white" transform="translate(-1293 -102)"/>
</clipPath>
<clipPath id="clip1_67_10">
<rect x="-1006" y="-12" width="1318" height="40" rx="10" fill="white"/>
</clipPath>
</defs>
</svg>
