<svg width="16" height="16" viewBox="0 0 16 16" fill="none" xmlns="http://www.w3.org/2000/svg">
<g filter="url(#filter0_dd_281_6500)">
<path d="M1 3.33333C1 2.04467 2.04467 1 3.33333 1H12.6667C13.9553 1 15 2.04467 15 3.33333V12.6667C15 13.9553 13.9553 15 12.6667 15H3.33333C2.04467 15 1 13.9553 1 12.6667V3.33333Z" fill="#3B3B3B" shape-rendering="crispEdges"/>
<g clip-path="url(#clip0_281_6500)">
<g clip-path="url(#clip1_281_6500)">
<path d="M7.41656 11.3057L11.3054 7.4168C11.4872 7.23872 11.6318 7.02638 11.7309 6.79206C11.8301 6.55774 11.8818 6.30609 11.8831 6.05167C11.8843 5.79724 11.8352 5.54508 11.7384 5.30977C11.6416 5.07446 11.4992 4.86067 11.3193 4.68076C11.1394 4.50085 10.9256 4.35839 10.6903 4.26162C10.455 4.16485 10.2028 4.11568 9.94836 4.11697C9.69394 4.11825 9.44229 4.16996 9.20797 4.26911C8.97365 4.36825 8.76131 4.51286 8.58323 4.69458L4.69434 8.58347C4.51262 8.76155 4.36801 8.97389 4.26886 9.20821C4.16972 9.44253 4.11801 9.69418 4.11672 9.94861C4.11544 10.203 4.1646 10.4552 4.26138 10.6905C4.35815 10.9258 4.50061 11.1396 4.68052 11.3195C4.86043 11.4994 5.07422 11.6419 5.30953 11.7387C5.54484 11.8354 5.79699 11.8846 6.05142 11.8833C6.30585 11.882 6.5575 11.8303 6.79182 11.7312C7.02614 11.632 7.23848 11.4874 7.41656 11.3057Z" stroke="white" stroke-width="0.777778" stroke-linecap="round" stroke-linejoin="round"/>
<path d="M6.63879 6.63904L9.36102 9.36126" stroke="white" stroke-width="0.777778" stroke-linecap="round" stroke-linejoin="round"/>
</g>
</g>
</g>
<defs>
<filter id="filter0_dd_281_6500" x="0.416667" y="0.270833" width="15.1667" height="15.4583" filterUnits="userSpaceOnUse" color-interpolation-filters="sRGB">
<feFlood flood-opacity="0" result="BackgroundImageFix"/>
<feColorMatrix in="SourceAlpha" type="matrix" values="0 0 0 0 0 0 0 0 0 0 0 0 0 0 0 0 0 0 127 0" result="hardAlpha"/>
<feOffset dy="0.145833"/>
<feGaussianBlur stdDeviation="0.291667"/>
<feComposite in2="hardAlpha" operator="out"/>
<feColorMatrix type="matrix" values="0 0 0 0 0 0 0 0 0 0 0 0 0 0 0 0 0 0 0.05 0"/>
<feBlend mode="normal" in2="BackgroundImageFix" result="effect1_dropShadow_281_6500"/>
<feColorMatrix in="SourceAlpha" type="matrix" values="0 0 0 0 0 0 0 0 0 0 0 0 0 0 0 0 0 0 127 0" result="hardAlpha"/>
<feOffset dy="-0.145833"/>
<feGaussianBlur stdDeviation="0.291667"/>
<feComposite in2="hardAlpha" operator="out"/>
<feColorMatrix type="matrix" values="0 0 0 0 0 0 0 0 0 0 0 0 0 0 0 0 0 0 0.05 0"/>
<feBlend mode="normal" in2="effect1_dropShadow_281_6500" result="effect2_dropShadow_281_6500"/>
<feBlend mode="normal" in="SourceGraphic" in2="effect2_dropShadow_281_6500" result="shape"/>
</filter>
<clipPath id="clip0_281_6500">
<rect width="9.33333" height="9.33333" fill="white" transform="translate(3.33337 3.33337)"/>
</clipPath>
<clipPath id="clip1_281_6500">
<rect width="9.33333" height="9.33333" fill="white" transform="translate(3.33337 3.33337)"/>
</clipPath>
</defs>
</svg>
