<svg width="12" height="12" viewBox="0 0 12 12" fill="none" xmlns="http://www.w3.org/2000/svg">
<path d="M5.49747 2.34V4.28C5.49747 4.44063 5.46575 4.59969 5.40412 4.74803C5.3425 4.89638 5.25219 5.03109 5.13837 5.14444C5.02455 5.2578 4.88947 5.34756 4.74088 5.40857C4.59228 5.46959 4.4331 5.50066 4.27247 5.5H2.34247C2.18227 5.50097 2.02352 5.46959 1.87574 5.40773C1.72797 5.34587 1.5942 5.2548 1.48247 5.14C1.36902 5.0275 1.27919 4.89348 1.21823 4.7458C1.15727 4.59813 1.12641 4.43976 1.12747 4.28V2.345C1.12746 2.0223 1.25531 1.71274 1.48303 1.48409C1.71074 1.25544 2.01977 1.12632 2.34247 1.125H4.27747C4.4375 1.12515 4.59591 1.15705 4.74353 1.21885C4.89115 1.28064 5.02505 1.3711 5.13747 1.485C5.25121 1.59649 5.34162 1.72951 5.40343 1.8763C5.46524 2.0231 5.49721 2.18073 5.49747 2.34ZM10.8725 2.345V4.28C10.8699 4.6019 10.7412 4.90995 10.514 5.13804C10.2869 5.36614 9.97935 5.49608 9.65747 5.5H7.71747C7.39407 5.49802 7.08402 5.37078 6.85247 5.145C6.73932 5.03124 6.64973 4.89629 6.58881 4.74786C6.5279 4.59943 6.49686 4.44044 6.49747 4.28V2.345C6.49706 2.18488 6.52871 2.02631 6.59053 1.87861C6.65236 1.73091 6.74312 1.59708 6.85747 1.485C6.96989 1.3711 7.10378 1.28064 7.2514 1.21885C7.39902 1.15705 7.55744 1.12515 7.71747 1.125H9.65247C9.97522 1.12761 10.284 1.25699 10.5122 1.48522C10.7405 1.71345 10.8699 2.02224 10.8725 2.345ZM10.8725 7.72V9.655C10.8699 9.9769 10.7412 10.285 10.514 10.513C10.2869 10.7411 9.97935 10.8711 9.65747 10.875H7.71747C7.39201 10.8783 7.0781 10.7545 6.84247 10.53C6.72888 10.4166 6.63899 10.2817 6.57804 10.1332C6.51709 9.98467 6.4863 9.82552 6.48747 9.665V7.73C6.48706 7.56988 6.51871 7.41131 6.58053 7.26361C6.64236 7.11591 6.73312 6.98208 6.84747 6.87C6.95989 6.7561 7.09378 6.66564 7.2414 6.60385C7.38902 6.54205 7.54744 6.51015 7.70747 6.51H9.64247C9.96522 6.51261 10.274 6.64199 10.5022 6.87022C10.7305 7.09845 10.8599 7.40724 10.8625 7.73L10.8725 7.72ZM5.49747 7.725V9.66C5.49353 9.98275 5.36289 10.291 5.13373 10.5183C4.90456 10.7456 4.59523 10.8737 4.27247 10.875H2.34247C2.18273 10.8757 2.02444 10.8447 1.87673 10.7839C1.72902 10.723 1.59481 10.6336 1.48186 10.5206C1.3689 10.4077 1.27943 10.2735 1.21861 10.1257C1.15778 9.97803 1.12681 9.81974 1.12747 9.66V7.725C1.12876 7.40223 1.25686 7.09291 1.48416 6.86374C1.71145 6.63457 2.01972 6.50393 2.34247 6.5H4.27747C4.60157 6.50332 4.91171 6.63239 5.14247 6.86C5.37051 7.09006 5.49816 7.40107 5.49747 7.725Z" fill="black"/>
</svg>
