<svg width="18" height="20" viewBox="0 0 18 20" fill="none" xmlns="http://www.w3.org/2000/svg">
<path d="M9.0617 0.869995C7.20518 0.869995 5.42471 1.60749 4.11195 2.92025C2.7992 4.233 2.0617 6.01348 2.0617 7.87V11.398C2.06184 11.5531 2.0259 11.7062 1.9567 11.845L0.239698 15.278C0.155824 15.4457 0.11622 15.6321 0.124646 15.8194C0.133073 16.0068 0.18925 16.1888 0.287843 16.3483C0.386436 16.5078 0.52417 16.6395 0.687965 16.7308C0.85176 16.8221 1.03618 16.87 1.2237 16.87H16.8997C17.0872 16.87 17.2716 16.8221 17.4354 16.7308C17.5992 16.6395 17.737 16.5078 17.8356 16.3483C17.9341 16.1888 17.9903 16.0068 17.9988 15.8194C18.0072 15.6321 17.9676 15.4457 17.8837 15.278L16.1677 11.845C16.0982 11.7062 16.0619 11.5532 16.0617 11.398V7.87C16.0617 6.01348 15.3242 4.233 14.0114 2.92025C12.6987 1.60749 10.9182 0.869995 9.0617 0.869995ZM9.0617 19.87C8.44105 19.8703 7.83557 19.6781 7.32872 19.3199C6.82186 18.9617 6.43858 18.4552 6.2317 17.87H11.8917C11.6848 18.4552 11.3015 18.9617 10.7947 19.3199C10.2878 19.6781 9.68235 19.8703 9.0617 19.87Z" fill="black"/>
<circle cx="14.6233" cy="3.37001" r="3.24" fill="#EB3B48"/>
</svg>
