<svg width="40" height="40" viewBox="0 0 40 40" fill="none" xmlns="http://www.w3.org/2000/svg">
<g filter="url(#filter0_dd_71_766)">
<path d="M2.3335 8C2.3335 4.68629 5.01979 2 8.3335 2H32.3335C35.6472 2 38.3335 4.68629 38.3335 8V32C38.3335 35.3137 35.6472 38 32.3335 38H8.3335C5.01979 38 2.3335 35.3137 2.3335 32V8Z" fill="#6B21A8" shape-rendering="crispEdges"/>
<g clip-path="url(#clip0_71_766)">
<path d="M18.8335 28.5L28.8335 18.5C29.3008 18.0421 29.6726 17.4961 29.9276 16.8935C30.1825 16.291 30.3155 15.6439 30.3188 14.9896C30.3221 14.3354 30.1957 13.687 29.9468 13.0819C29.698 12.4768 29.3317 11.9271 28.869 11.4645C28.4064 11.0018 27.8567 10.6355 27.2516 10.3867C26.6465 10.1378 25.9981 10.0114 25.3439 10.0147C24.6896 10.018 24.0425 10.151 23.44 10.4059C22.8374 10.6609 22.2914 11.0327 21.8335 11.5L11.8335 21.5C11.3662 21.9579 10.9944 22.5039 10.7394 23.1065C10.4845 23.709 10.3515 24.3561 10.3482 25.0104C10.3449 25.6646 10.4713 26.313 10.7202 26.9181C10.969 27.5232 11.3353 28.0729 11.798 28.5355C12.2606 28.9982 12.8103 29.3645 13.4154 29.6133C14.0205 29.8622 14.6689 29.9886 15.3231 29.9853C15.9774 29.982 16.6245 29.849 17.227 29.5941C17.8296 29.3391 18.3756 28.9673 18.8335 28.5Z" stroke="white" stroke-width="2" stroke-linecap="round" stroke-linejoin="round"/>
<path d="M16.8335 16.5L23.8335 23.5" stroke="white" stroke-width="2" stroke-linecap="round" stroke-linejoin="round"/>
</g>
</g>
<defs>
<filter id="filter0_dd_71_766" x="0.833496" y="0.125" width="39" height="39.75" filterUnits="userSpaceOnUse" color-interpolation-filters="sRGB">
<feFlood flood-opacity="0" result="BackgroundImageFix"/>
<feColorMatrix in="SourceAlpha" type="matrix" values="0 0 0 0 0 0 0 0 0 0 0 0 0 0 0 0 0 0 127 0" result="hardAlpha"/>
<feOffset dy="0.375"/>
<feGaussianBlur stdDeviation="0.75"/>
<feComposite in2="hardAlpha" operator="out"/>
<feColorMatrix type="matrix" values="0 0 0 0 0 0 0 0 0 0 0 0 0 0 0 0 0 0 0.05 0"/>
<feBlend mode="normal" in2="BackgroundImageFix" result="effect1_dropShadow_71_766"/>
<feColorMatrix in="SourceAlpha" type="matrix" values="0 0 0 0 0 0 0 0 0 0 0 0 0 0 0 0 0 0 127 0" result="hardAlpha"/>
<feOffset dy="-0.375"/>
<feGaussianBlur stdDeviation="0.75"/>
<feComposite in2="hardAlpha" operator="out"/>
<feColorMatrix type="matrix" values="0 0 0 0 0 0 0 0 0 0 0 0 0 0 0 0 0 0 0.05 0"/>
<feBlend mode="normal" in2="effect1_dropShadow_71_766" result="effect2_dropShadow_71_766"/>
<feBlend mode="normal" in="SourceGraphic" in2="effect2_dropShadow_71_766" result="shape"/>
</filter>
<clipPath id="clip0_71_766">
<rect width="24" height="24" fill="white" transform="translate(8.3335 8)"/>
</clipPath>
</defs>
</svg>
