<svg width="16" height="16" viewBox="0 0 16 16" fill="none" xmlns="http://www.w3.org/2000/svg">
<path d="M11.2001 5.25182V2.85182H4.80012V5.25182H4.00012V2.05182H12.0001V5.25182H11.2001ZM12.4921 8.05182C12.7188 8.05182 12.9089 7.97502 13.0625 7.82142C13.2161 7.66782 13.2927 7.47795 13.2921 7.25182C13.2916 7.02569 13.2151 6.83555 13.0625 6.68142C12.91 6.52729 12.7199 6.45048 12.4921 6.45102C12.2644 6.45155 12.0745 6.52835 11.9225 6.68142C11.7705 6.83449 11.6937 7.02462 11.6921 7.25182C11.6905 7.47902 11.7673 7.66889 11.9225 7.82142C12.0777 7.97395 12.2671 8.05075 12.4921 8.05182ZM11.2001 13.559V9.92862H4.80012V13.559H11.2001ZM12.0001 14.359H4.00012V11.159H1.26172V6.85182C1.26172 6.39849 1.41559 6.01849 1.72332 5.71182C2.03105 5.40515 2.41052 5.25155 2.86172 5.25102H13.1385C13.5919 5.25102 13.9719 5.40462 14.2785 5.71182C14.5852 6.01902 14.7385 6.39875 14.7385 6.85102V11.159H12.0001V14.359ZM13.9385 10.359V6.85182C13.9385 6.62515 13.862 6.43502 13.7089 6.28142C13.5559 6.12782 13.3657 6.05102 13.1385 6.05102H2.86172C2.63505 6.05102 2.44519 6.12782 2.29212 6.28142C2.13905 6.43502 2.06225 6.62515 2.06172 6.85182V10.359H4.00012V9.12862H12.0001V10.359H13.9385Z" fill="black"/>
</svg>
