<svg width="16" height="16" viewBox="0 0 16 16" fill="none" xmlns="http://www.w3.org/2000/svg">
<path d="M10.8335 14V10.8233C10.8333 10.684 10.8057 10.5461 10.7522 10.4175C10.6987 10.2889 10.6203 10.172 10.5216 10.0737C10.4229 9.9754 10.3058 9.8975 10.177 9.84447C10.0482 9.79144 9.91014 9.76432 9.77083 9.76467H6.2295C6.09018 9.76432 5.95217 9.79144 5.82334 9.84447C5.69451 9.8975 5.57741 9.9754 5.47871 10.0737C5.38002 10.172 5.30167 10.2889 5.24815 10.4175C5.19464 10.5461 5.167 10.684 5.16683 10.8233V14M10.8335 2.19001V3.76467C10.8333 3.90399 10.8057 4.0419 10.7522 4.17052C10.6987 4.29915 10.6203 4.41596 10.5216 4.51429C10.4229 4.61261 10.3058 4.69052 10.177 4.74355C10.0482 4.79658 9.91014 4.82369 9.77083 4.82334H6.2295C6.09018 4.82369 5.95217 4.79658 5.82334 4.74355C5.69451 4.69052 5.57741 4.61261 5.47871 4.51429C5.38002 4.41596 5.30167 4.29915 5.24815 4.17052C5.19464 4.0419 5.167 3.90399 5.16683 3.76467V2.00001M10.8335 2.19001C10.557 2.0648 10.257 2.00002 9.9535 2.00001H5.16683M10.8335 2.19001C11.0628 2.29401 11.2742 2.43934 11.4562 2.62001L13.0442 4.20334C13.2413 4.39955 13.3979 4.63277 13.5047 4.8896C13.6116 5.14643 13.6667 5.42183 13.6668 5.70001V11.8813C13.6667 12.16 13.6115 12.4359 13.5046 12.6933C13.3977 12.9507 13.2411 13.1844 13.0438 13.3812C12.8464 13.578 12.6122 13.7339 12.3546 13.8401C12.0969 13.9463 11.8208 14.0006 11.5422 14H4.45883C4.18015 14.0007 3.90406 13.9465 3.64636 13.8404C3.38867 13.7343 3.15442 13.5784 2.95702 13.3817C2.75962 13.185 2.60295 12.9512 2.49595 12.6939C2.38896 12.4366 2.33376 12.1607 2.3335 11.882V4.11734C2.33385 3.83871 2.38912 3.56289 2.49615 3.30564C2.60318 3.04839 2.75987 2.81476 2.95726 2.61811C3.15465 2.42146 3.38887 2.26565 3.64652 2.15959C3.90417 2.05354 4.1802 1.99931 4.45883 2.00001H5.16683" stroke="#00C283" stroke-linecap="round" stroke-linejoin="round"/>
</svg>
