<svg width="15" height="14" viewBox="0 0 15 14" fill="none" xmlns="http://www.w3.org/2000/svg">
<path d="M7.3335 8.75C8.29996 8.75 9.0835 7.96647 9.0835 7C9.0835 6.0335 8.29996 5.25 7.3335 5.25C6.367 5.25 5.5835 6.0335 5.5835 7C5.5835 7.96647 6.367 8.75 7.3335 8.75Z" fill="#F7F7F9"/>
<path d="M10.5713 2.38778C9.90711 1.92034 9.13789 1.59523 8.30566 1.45056" stroke="black" stroke-width="1.16667" stroke-linecap="round" stroke-linejoin="round"/>
<path d="M12.8844 6.02783C12.7452 5.2275 12.4309 4.45438 11.9448 3.76294" stroke="black" stroke-width="1.16667" stroke-linecap="round" stroke-linejoin="round"/>
<path d="M11.9456 10.2378C12.413 9.57361 12.7381 8.80439 12.8828 7.97217" stroke="black" stroke-width="1.16667" stroke-linecap="round" stroke-linejoin="round"/>
<path opacity="0.3" d="M8.30566 12.551C9.106 12.4118 9.87911 12.0976 10.5706 11.6115" stroke="black" stroke-width="1.16667" stroke-linecap="round" stroke-linejoin="round"/>
<path opacity="0.3" d="M4.0957 11.6123C4.75993 12.0797 5.52915 12.4049 6.36137 12.5495" stroke="black" stroke-width="1.16667" stroke-linecap="round" stroke-linejoin="round"/>
<path opacity="0.3" d="M1.78247 7.97217C1.92169 8.7725 2.23592 9.54561 2.72203 10.2371" stroke="black" stroke-width="1.16667" stroke-linecap="round" stroke-linejoin="round"/>
<path opacity="0.3" d="M2.72116 3.76208C2.25371 4.42631 1.9286 5.19553 1.78394 6.02775" stroke="black" stroke-width="1.16667" stroke-linecap="round" stroke-linejoin="round"/>
<path opacity="0.3" d="M6.36132 1.44897C5.56099 1.5882 4.78788 1.90242 4.09644 2.38853" stroke="black" stroke-width="1.16667" stroke-linecap="round" stroke-linejoin="round"/>
<path d="M7.3335 8.75C8.29996 8.75 9.0835 7.96647 9.0835 7C9.0835 6.0335 8.29996 5.25 7.3335 5.25C6.367 5.25 5.5835 6.0335 5.5835 7C5.5835 7.96647 6.367 8.75 7.3335 8.75Z" stroke="black" stroke-width="1.16667" stroke-linecap="round" stroke-linejoin="round"/>
</svg>
