<svg width="20" height="20" viewBox="0 0 20 20" fill="none" xmlns="http://www.w3.org/2000/svg">
<path d="M6.20331 2.01568C6.20331 1.65631 5.95331 1.54693 4.51581 1.59381C3.31268 1.64068 2.71893 1.78131 2.35956 2.21881C2.06268 2.57818 2.00018 3.09381 1.95331 3.53131C1.92206 3.87506 1.60956 5.85943 2.50018 5.28131C2.60643 5.21099 2.69237 5.11412 2.75018 5.00006C2.93768 4.67193 3.04706 4.45318 3.26581 4.12506C4.09393 2.78131 6.20331 2.48443 6.20331 2.01568Z" fill="white"/>
<path d="M8.39453 15.3234C7.76797 14.8469 7.36016 14.0969 7.36016 13.25C7.36016 11.9375 8.33672 10.8531 9.59922 10.6734C9.51016 9.42812 8.49297 8.86093 6.65391 8.86093H5.46484C3.80234 8.86093 2.75391 9.59687 2.75391 11.0375V14.9641C2.75391 15.5625 3.23984 16.0484 3.83828 16.0484H7.31016C8.12734 16.05 8.39453 15.3234 8.39453 15.3234Z" fill="#222222"/>
<path d="M6.17891 8.2969C7.49231 8.2969 8.55703 7.23218 8.55703 5.91877C8.55703 4.60537 7.49231 3.54065 6.17891 3.54065C4.8655 3.54065 3.80078 4.60537 3.80078 5.91877C3.80078 7.23218 4.8655 8.2969 6.17891 8.2969Z" fill="#222222"/>
<path d="M14.4625 8.86246H13.2734C11.4344 8.86246 10.4172 9.43121 10.3281 10.675C11.5922 10.8531 12.5703 11.939 12.5703 13.2515C12.5703 14.0968 12.1625 14.8484 11.5359 15.325C11.5359 15.325 11.8016 16.05 12.6203 16.05H16.0906C16.6891 16.05 17.175 15.564 17.175 14.9656V11.039C17.1734 9.59839 16.1234 8.86246 14.4625 8.86246Z" fill="#222222"/>
<path d="M13.7453 8.2969C15.0587 8.2969 16.1234 7.23218 16.1234 5.91877C16.1234 4.60537 15.0587 3.54065 13.7453 3.54065C12.4319 3.54065 11.3672 4.60537 11.3672 5.91877C11.3672 7.23218 12.4319 8.2969 13.7453 8.2969Z" fill="#222222"/>
<path d="M9.96797 15.1688C11.0268 15.1688 11.8852 14.3104 11.8852 13.2516C11.8852 12.1927 11.0268 11.3344 9.96797 11.3344C8.90914 11.3344 8.05078 12.1927 8.05078 13.2516C8.05078 14.3104 8.90914 15.1688 9.96797 15.1688Z" fill="#222222"/>
<path d="M8.06319 17.3078C7.90694 17.3078 7.78976 17.1593 7.83038 17.0093C8.04288 16.2328 8.91632 15.6015 9.96319 15.6015C11.0148 15.6015 11.8898 16.2156 12.0991 17.0109C12.1382 17.1609 12.0226 17.3093 11.8663 17.3093C11.8663 17.3078 8.06319 17.3078 8.06319 17.3078Z" fill="#222222"/>
</svg>
