<svg width="8" height="8" viewBox="0 0 8 8" fill="none" xmlns="http://www.w3.org/2000/svg">
<path d="M3.99869 5.5225C3.80385 5.5225 3.6376 5.45323 3.49994 5.31469C3.36227 5.17615 3.29344 5.00946 3.29344 4.81463C3.29344 4.61979 3.36271 4.45354 3.50125 4.31588C3.63979 4.17821 3.80662 4.10938 4.00175 4.10938C4.19687 4.10938 4.36313 4.17879 4.5005 4.31763C4.63788 4.45646 4.70671 4.62315 4.707 4.81769C4.70729 5.01223 4.63788 5.17848 4.49875 5.31644C4.35963 5.4544 4.19294 5.52323 3.99869 5.52294M2.41406 2.14062H5.58594L6.14375 1.00794C6.20558 0.890396 6.20296 0.776354 6.13587 0.665813C6.06879 0.555271 5.96817 0.5 5.834 0.5H2.166C2.03183 0.5 1.93121 0.555271 1.86413 0.665813C1.79704 0.776354 1.79442 0.890542 1.85625 1.00838L2.41406 2.14062ZM2.52606 7.5H5.47394C6.03685 7.5 6.51519 7.30298 6.90894 6.90894C7.30298 6.5149 7.5 6.03569 7.5 5.47131C7.5 5.23565 7.4596 5.0061 7.37881 4.78269C7.29802 4.55927 7.18135 4.35583 7.02881 4.17237L5.69794 2.57812H2.30206L0.971188 4.17237C0.818646 4.35583 0.701979 4.55927 0.621187 4.78269C0.540396 5.00581 0.5 5.23535 0.5 5.47131C0.5 6.03569 0.697021 6.5149 1.09106 6.90894C1.4851 7.30298 1.96344 7.5 2.52606 7.5Z" fill="white"/>
</svg>
